jumping_motion
nRows=17
nColumns=24
inDegrees=yes
endheader
time	pelvis_tilt	pelvis_list	pelvis_rotation	pelvis_tx	pelvis_ty	pelvis_tz	hip_flexion_r	hip_adduction_r	hip_rotation_r	knee_angle_r	ankle_angle_r	subtalar_angle_r	mtp_angle_r	hip_flexion_l	hip_adduction_l	hip_rotation_l	knee_angle_l	ankle_angle_l	subtalar_angle_l	mtp_angle_l	lumbar_extension	lumbar_bending	lumbar_rotation
0.620000	0.000000	0.000000	0.000000	0.000000	0.899518	0.000000	6.531840	0.000000	0.000000	-13.063680	6.531840	0.000000	0.000000	6.531840	0.000000	0.000000	-13.063680	6.531840	0.000000	0.000000	-4.354560	0.000000	0.000000
0.630000	0.000000	0.000000	0.000000	0.000000	0.894794	0.000000	7.544160	0.000000	0.000000	-15.088320	7.544160	0.000000	0.000000	7.544160	0.000000	0.000000	-15.088320	7.544160	0.000000	0.000000	-5.029440	0.000000	0.000000
0.640000	0.000000	0.000000	0.000000	0.000000	0.889828	0.000000	8.608320	0.000000	0.000000	-17.216640	8.608320	0.000000	0.000000	8.608320	0.000000	0.000000	-17.216640	8.608320	0.000000	0.000000	-5.738880	0.000000	0.000000
0.650000	0.000000	0.000000	0.000000	0.000000	0.884640	0.000000	9.720000	0.000000	0.000000	-19.440000	9.720000	0.000000	0.000000	9.720000	0.000000	0.000000	-19.440000	9.720000	0.000000	0.000000	-6.480000	0.000000	0.000000
0.660000	0.000000	0.000000	0.000000	0.000000	0.879251	0.000000	10.874880	0.000000	0.000000	-21.749760	10.874880	0.000000	0.000000	10.874880	0.000000	0.000000	-21.749760	10.874880	0.000000	0.000000	-7.249920	0.000000	0.000000
0.670000	0.000000	0.000000	0.000000	0.000000	0.873680	0.000000	12.068640	0.000000	0.000000	-24.137280	12.068640	0.000000	0.000000	12.068640	0.000000	0.000000	-24.137280	12.068640	0.000000	0.000000	-8.045760	0.000000	0.000000
0.680000	0.000000	0.000000	0.000000	0.000000	0.867948	0.000000	13.296960	0.000000	0.000000	-26.593920	13.296960	0.000000	0.000000	13.296960	0.000000	0.000000	-26.593920	13.296960	0.000000	0.000000	-8.864640	0.000000	0.000000
0.690000	0.000000	0.000000	0.000000	0.000000	0.862074	0.000000	14.555520	0.000000	0.000000	-29.111040	14.555520	0.000000	0.000000	14.555520	0.000000	0.000000	-29.111040	14.555520	0.000000	0.000000	-9.703680	0.000000	0.000000
0.700000	0.000000	0.000000	0.000000	0.000000	0.856080	0.000000	15.840000	0.000000	0.000000	-31.680000	15.840000	0.000000	0.000000	15.840000	0.000000	0.000000	-31.680000	15.840000	0.000000	0.000000	-10.560000	0.000000	0.000000
0.710000	0.000000	0.000000	0.000000	0.000000	0.849985	0.000000	17.146080	0.000000	0.000000	-34.292160	17.146080	0.000000	0.000000	17.146080	0.000000	0.000000	-34.292160	17.146080	0.000000	0.000000	-11.430720	0.000000	0.000000
0.720000	0.000000	0.000000	0.000000	0.000000	0.843809	0.000000	18.469440	0.000000	0.000000	-36.938880	18.469440	0.000000	0.000000	18.469440	0.000000	0.000000	-36.938880	18.469440	0.000000	0.000000	-12.312960	0.000000	0.000000
0.730000	0.000000	0.000000	0.000000	0.000000	0.837573	0.000000	19.805760	0.000000	0.000000	-39.611520	19.805760	0.000000	0.000000	19.805760	0.000000	0.000000	-39.611520	19.805760	0.000000	0.000000	-13.203840	0.000000	0.000000
0.740000	0.000000	0.000000	0.000000	0.000000	0.831297	0.000000	21.150720	0.000000	0.000000	-42.301440	21.150720	0.000000	0.000000	21.150720	0.000000	0.000000	-42.301440	21.150720	0.000000	0.000000	-14.100480	0.000000	0.000000
0.750000	0.000000	0.000000	0.000000	0.000000	0.825000	0.000000	22.500000	0.000000	0.000000	-45.000000	22.500000	0.000000	0.000000	22.500000	0.000000	0.000000	-45.000000	22.500000	0.000000	0.000000	-15.000000	0.000000	0.000000
0.760000	0.000000	0.000000	0.000000	0.000000	0.818703	0.000000	23.849280	0.000000	0.000000	-47.698560	23.849280	0.000000	0.000000	23.849280	0.000000	0.000000	-47.698560	23.849280	0.000000	0.000000	-15.899520	0.000000	0.000000
0.770000	0.000000	0.000000	0.000000	0.000000	0.812427	0.000000	25.194240	0.000000	0.000000	-50.388480	25.194240	0.000000	0.000000	25.194240	0.000000	0.000000	-50.388480	25.194240	0.000000	0.000000	-16.796160	0.000000	0.000000
0.780000	0.000000	0.000000	0.000000	0.000000	0.806191	0.000000	26.530560	0.000000	0.000000	-53.061120	26.530560	0.000000	0.000000	26.530560	0.000000	0.000000	-53.061120	26.530560	0.000000	0.000000	-17.687040	0.000000	0.000000
